<svg width="22" height="22" viewBox="0 0 22 22" fill="none" xmlns="http://www.w3.org/2000/svg">
<path fill-rule="evenodd" clip-rule="evenodd" d="M16 2.59961C16.5521 2.59961 16.999 3.04568 16.9883 3.59766C16.9562 5.21716 16.8378 8.32529 16.4004 9.2002C15.8727 10.2555 14.8802 11.773 12.2002 12.124V15.8896C14.0292 16.1493 15.7031 16.9157 16.5039 17.3291C16.816 17.4902 16.9999 17.8148 17 18.166V18.4004C16.9998 18.9525 16.5522 19.4004 16 19.4004H6C5.44785 19.4004 5.00021 18.9525 5 18.4004V18.166C5.00006 17.8148 5.18402 17.4902 5.49609 17.3291C6.29686 16.9157 7.97077 16.1493 9.7998 15.8896V12.124C7.1198 11.773 6.12718 10.2555 5.59961 9.2002C5.16224 8.32529 5.04385 5.21716 5.01172 3.59766C5.00101 3.04568 5.44787 2.59962 6 2.59961H16Z" fill="url(#paint0_linear_946_8967)"/>
<defs>
<linearGradient id="paint0_linear_946_8967" x1="11" y1="-2.80064" x2="11" y2="19.4004" gradientUnits="userSpaceOnUse">
<stop stop-color="#CECFF5"/>
<stop offset="1" stop-color="#6468E0"/>
</linearGradient>
</defs>
</svg>
