<svg width="24" height="24" viewBox="0 0 24 24" fill="none" xmlns="http://www.w3.org/2000/svg">
<rect width="24" height="24" rx="12" fill="white"/>
<rect x="0.5" y="0.5" width="23" height="23" rx="11.5" stroke="black" stroke-opacity="0.1"/>
<path d="M8.50033 6.75C7.21168 6.75 6.16699 7.79475 6.16699 9.08334V14.9167C6.16699 16.2053 7.21168 17.25 8.50033 17.25H15.5003C16.789 17.25 17.8337 16.2053 17.8337 14.9167V10.25C17.8337 8.96142 16.789 7.91667 15.5003 7.91667H10.4873C10.0375 7.2575 9.30714 6.75 8.50033 6.75ZM8.50033 7.91667C8.99359 7.91667 9.55097 8.28651 9.72171 8.71876C9.80968 8.94159 10.0109 9.08334 10.2503 9.08334H15.5003C16.1447 9.08334 16.667 9.60543 16.667 10.25V14.9167C16.667 15.5613 16.1447 16.0834 15.5003 16.0834H8.50033C7.85598 16.0834 7.33366 15.5613 7.33366 14.9167V9.08334C7.33366 8.43876 7.85598 7.91667 8.50033 7.91667ZM8.50033 8.50001C8.17815 8.50001 7.91699 8.76134 7.91699 9.08334C7.91699 9.40534 8.17815 9.66668 8.50033 9.66668C8.8225 9.66668 9.08366 9.40534 9.08366 9.08334C9.08366 8.76134 8.8225 8.50001 8.50033 8.50001ZM12.0003 9.66668C10.3895 9.66668 9.08366 10.9728 9.08366 12.5834C9.08366 14.1939 10.3895 15.5 12.0003 15.5C13.6111 15.5 14.917 14.1939 14.917 12.5834C14.917 10.9728 13.6111 9.66668 12.0003 9.66668ZM12.0003 10.8333C12.9669 10.8333 13.7503 11.6168 13.7503 12.5834C13.7503 13.5499 12.9669 14.3334 12.0003 14.3334C11.0338 14.3334 10.2503 13.5499 10.2503 12.5834C10.2503 11.6168 11.0338 10.8333 12.0003 10.8333Z" fill="#A6A6A6"/>
</svg>
