<svg width="22" height="22" viewBox="0 0 22 22" fill="none" xmlns="http://www.w3.org/2000/svg">
<path d="M9.59351 10.2181V14.2344" stroke="#EC1313" stroke-width="1.46087" stroke-linecap="round" stroke-linejoin="round"/>
<path d="M12.2717 10.2181V14.2344" stroke="#EC1313" stroke-width="1.46087" stroke-linecap="round" stroke-linejoin="round"/>
<path d="M15.6195 6.8703V16.2442C15.6195 16.5994 15.4784 16.94 15.2273 17.1911C14.9762 17.4423 14.6355 17.5833 14.2804 17.5833H7.58474C7.22958 17.5833 6.88896 17.4423 6.63783 17.1911C6.38669 16.94 6.24561 16.5994 6.24561 16.2442V6.8703" stroke="#EC1313" stroke-width="1.46087" stroke-linecap="round" stroke-linejoin="round"/>
<path d="M4.72388 6.50507H16.7761" stroke="#EC1313" stroke-width="1.46087" stroke-linecap="round" stroke-linejoin="round"/>
<path d="M8.25439 6.26157V4.92244C8.25439 4.56728 8.39548 4.22667 8.64662 3.97554C8.89775 3.7244 9.23837 3.58331 9.59352 3.58331H12.2718C12.6269 3.58331 12.9676 3.7244 13.2187 3.97554C13.4698 4.22667 13.6109 4.56728 13.6109 4.92244V6.26157" stroke="#EC1313" stroke-width="1.46087" stroke-linecap="round" stroke-linejoin="round"/>
</svg>
