<svg width="12" height="11" viewBox="0 0 12 11" fill="none" xmlns="http://www.w3.org/2000/svg">
<path d="M2.33333 0C1.04469 0 0 1.04475 0 2.33334V8.16669C0 9.45528 1.04469 10.5 2.33333 10.5H9.33334C10.622 10.5 11.6667 9.45528 11.6667 8.16669V3.50001C11.6667 2.21142 10.622 1.16667 9.33334 1.16667H4.32029C3.87054 0.507502 3.14014 0 2.33333 0ZM2.33333 1.16667C2.8266 1.16667 3.38398 1.53651 3.55472 1.96876C3.64268 2.19159 3.84393 2.33334 4.08333 2.33334H9.33334C9.97769 2.33334 10.5 2.85543 10.5 3.50001V8.16669C10.5 8.81128 9.97769 9.33336 9.33334 9.33336H2.33333C1.68898 9.33336 1.16667 8.81128 1.16667 8.16669V2.33334C1.16667 1.68876 1.68898 1.16667 2.33333 1.16667ZM2.33333 1.75001C2.01116 1.75001 1.75 2.01134 1.75 2.33334C1.75 2.65534 2.01116 2.91668 2.33333 2.91668C2.65551 2.91668 2.91667 2.65534 2.91667 2.33334C2.91667 2.01134 2.65551 1.75001 2.33333 1.75001ZM5.83334 2.91668C4.22252 2.91668 2.91667 4.22276 2.91667 5.83335C2.91667 7.44394 4.22252 8.75003 5.83334 8.75003C7.44415 8.75003 8.75 7.44394 8.75 5.83335C8.75 4.22276 7.44415 2.91668 5.83334 2.91668ZM5.83334 4.08335C6.79986 4.08335 7.58334 4.86677 7.58334 5.83335C7.58334 6.79994 6.79986 7.58336 5.83334 7.58336C4.86681 7.58336 4.08333 6.79994 4.08333 5.83335C4.08333 4.86677 4.86681 4.08335 5.83334 4.08335Z" fill="white"/>
</svg>
